<?xml version="1.0" encoding="utf-8"?>
<!-- Generator: Adobe Illustrator 26.5.0, SVG Export Plug-In . SVG Version: 6.00 Build 0)  -->
<svg version="1.1" id="Capa_1" xmlns="http://www.w3.org/2000/svg" xmlns:xlink="http://www.w3.org/1999/xlink" x="0px" y="0px"
	 viewBox="0 0 150 52" style="enable-background:new 0 0 150 52;" xml:space="preserve">
<style type="text/css">
	.st0{fill:#FFFFFF;}
</style>
<g id="Capa_1-2">
	<g>
		<path class="st0" d="M128.6,41.8c0.1-0.1,0-0.2-0.1-0.2c-2.8,1.1-9,2.2-12.8,2.8c-3.3,0.5-6.2,0.6-7.7,0.7l-0.7,0.1
			c-0.1,0-0.1,0.1-0.1,0.1c0,0.1,0,0.1,0.1,0.1c0.3,0.3,1.2,1.2,3.1,1.5c2.1,0.3,5.3-0.3,9.3-1.4C122.9,44.6,126.7,42.9,128.6,41.8"
			/>
		<path class="st0" d="M128.9,43.4c-1.8,1.2-4.2,2.4-7.1,3.4s-6.1,1.9-9.5,2.5c-0.1,0-0.1,0.1-0.1,0.1v0.1c0.6,0.5,1.3,0.7,2.2,0.8
			c1.1,0.1,2.4,0,4-0.4c1.4-0.4,2.7-1,4.2-1.7c1.4-0.7,2.8-1.5,3.9-2.3c1.2-0.8,2-1.7,2.6-2.4C128.9,43.5,128.9,43.5,128.9,43.4"/>
		<path class="st0" d="M114.4,12c0.7,0.8,1.6,1.3,2.8,1.7h0.1c0.3,0.1,19.1,5,24,6.4c2.2,0.6,3.9,1,4.7,1.3c0.1,0,0.1,0,0.1-0.1
			c0,0,0-0.1-0.1-0.1c-3.1-1.3-22.4-8.7-29.7-11.5l-3.1-1.2c-0.1,0-0.2,0-0.2,0v0.1c0,0.3,0.2,1.6,0.8,2.6
			C114,11.5,114.2,11.7,114.4,12"/>
		<path class="st0" d="M115.2,4.6c0.4,0.5,0.7,0.8,1.4,1.2c0.2,0.1,0.5,0.3,0.7,0.4l1.7,0.9c1,0.5,15.5,7.2,17.6,8.3
			c2.5,1.2,5,2.4,6.1,3c0.1,0,0.2,0,0.1-0.1c-2.7-1.7-13.1-8.2-20.4-12.8l-5.3-3.2l-1-0.6l-1.8-1.1c-0.1,0-0.1,0-0.2,0
			S114,0.7,114,0.7c0,0.2,0,1.6,0.4,2.6C114.7,3.7,114.9,4.2,115.2,4.6"/>
		<path class="st0" d="M128.3,46.7C128.3,46.7,128.2,46.7,128.3,46.7c-2.5,2.4-6,3.7-7.2,4.1c-0.1,0-0.1,0.1-0.1,0.1
			c0,0.1,0,0.1,0.1,0.2c0.2,0.1,1.6,0.9,4.3-0.5c1.5-0.8,2.3-2,3-3.7C128.4,46.7,128.3,46.7,128.3,46.7"/>
		<path class="st0" d="M145.5,26.8c-1.2,0.3-5.8,1.5-9.9,2.6c-3.5,0.9-7.4,2-7.4,2c-0.4,0.1-0.3,0.3-0.2,0.3c0.1,0.2,0.3,0.5,0.6,1
			c0.6,1.1,1.5,0.9,2.2,0.7c0.1,0,14.1-5.9,14.8-6.3c0.1-0.1,0-0.1,0-0.1C145.6,26.8,145.5,26.8,145.5,26.8"/>
		<path class="st0" d="M139.4,36.6L139.4,36.6c-1.9,1.6-4.8,4-7.7,6.5c-0.3,0.2-0.4,0.6-0.5,1.1c-0.2,0.8-0.6,1.9-0.6,1.9
			c-0.1,0.2,0,0.3,0.3,0.1c2.2-2.4,7.2-7.9,8.6-9.5C139.5,36.6,139.4,36.6,139.4,36.6"/>
		<path class="st0" d="M148.2,23.1c-2.5-0.5-32.7-5.8-32.8-5.8c-0.1,0-0.1,0-0.2,0.1c0,0.1,0,0.1,0,0.2c0.5,1.6,1.7,3.1,3.7,3.8
			c0.2,0.1,0.4,0.1,0.7,0.1c0,0,25.7,1.7,28.5,1.9c0.1,0,0.1,0,0.1-0.1S148.3,23.1,148.2,23.1"/>
		<path class="st0" d="M147,24.8c-0.9,0-2.8,0-5.1,0c-2.7,0-5.9,0-9,0c-4.1,0-10.7,0-10.7,0s-0.1,0-0.1,0.1V25
			c0.1,0.3,0.5,1,0.9,1.4c0.8,0.9,1.7,1.3,2.7,1.4c0.1,0,0.2,0,0.3,0s0.2,0,0.3,0c0.1,0,19.6-2.8,20.7-2.9C147,25,147.1,25,147,24.8
			C147.1,24.9,147,24.8,147,24.8"/>
		<path class="st0" d="M144,29.6c-1.3,0.8-4.8,3-7.8,4.8c-1.7,1-3.8,2.2-4.9,2.9c-0.1,0.1-0.2,0.1-0.2,0.4c0,0,0.1,0.3,0.1,0.7
			c0.1,1.6,0.8,1.4,1.8,0.7l0.1-0.1c3.4-2.8,9.6-8,11-9.2C144,29.6,144,29.6,144,29.6"/>
		<path class="st0" d="M87.5,12c-6.7,0-13,4.9-13.3,14.6c-0.2,8.7,4.3,14.9,12,14.9c6.3,0,8.6-4.4,8.6-4.4c0.4,3,2,3.9,5.1,3.9V12
			H87.5L87.5,12z M94.5,29c0,4-2.3,7.8-7.3,7.8c-4.4,0-7.6-3-7.4-10.2c0.2-6.9,3.5-10,7.9-10c0.3,0,0.7,0,1,0l0,0h5.8V29L94.5,29z"
			/>
		<path class="st0" d="M44.8,12v20c0,2.9-2.4,4.4-5.6,4.4c-3.4,0-5.5-1.5-5.5-4.4V17c0-4.3-2.7-5-5-5v21.2c0,5.4,4.8,8,10.5,8
			s10.8-2.6,10.8-8V17.7C49.9,13.5,48.3,12,44.8,12"/>
		<path class="st0" d="M16.7,24.9l-6.2-1.7c-1.7-0.5-3.2-1.2-3.2-3.3s1.3-3.2,4-3.2h5.5c2.4,0,5.3-0.8,5.3-4.8H11.8
			c-6.4,0-10,3.2-10,7.8c0,4.3,2.7,6.7,7.6,8l5.4,1.4c2.2,0.6,3,2,3,3.4c0,2.2-1.4,3.5-4.7,3.5L2.7,36.2v4.7h10.5
			c6.4,0,10-3.4,10-7.9S21.4,26.2,16.7,24.9"/>
		<path class="st0" d="M67.2,12c-6.2,0-10.5,3.6-10.5,11v17.9h5v-18c0-3.8,2.1-6.1,6-6.1h1.5c4.4,0,5.1-2.3,5.1-4.8L67.2,12L67.2,12
			z"/>
	</g>
</g>
</svg>
