<svg xmlns="http://www.w3.org/2000/svg" xmlns:xlink="http://www.w3.org/1999/xlink" width="35" height="35" viewBox="0 0 35 35"><defs><style>.a{fill:#787477;}.b{clip-path:url(#a);}.c{clip-path:url(#b);}.d{clip-path:url(#c);}.e{clip-path:url(#e);}.f{clip-path:url(#g);}.g{clip-path:url(#i);}</style><clipPath id="a"><path class="a" d="M34.712-30.711,30.58-34.69a.836.836,0,0,0-.623-.31H13.406a.882.882,0,0,0-.877.885V-31.4L6.7-30.386a.872.872,0,0,0-.7,1.006l.3,1.743c-1.9.644-3.843,1.309-5.722,1.99A.879.879,0,0,0,.05-24.533L3.788-14.039a.513.513,0,0,0,.482.343.507.507,0,0,0,.173-.031.519.519,0,0,0,.309-.662L1.07-24.728c1.771-.64,3.6-1.267,5.4-1.876L8.228-16.232,10.255-4.287a.871.871,0,0,0,.854.722.866.866,0,0,0,.142-.012l5.49-.951,4.29-.743L14.579-2.93,9.491-1.082l-3.952-11.1a.511.511,0,0,0-.656-.312.519.519,0,0,0-.309.662L8.582-.574A.866.866,0,0,0,9.394,0a.841.841,0,0,0,.291-.052l5.241-1.9,11.9-4.32L29.1-6.668h5.022A.883.883,0,0,0,35-7.556V-30.128A.747.747,0,0,0,34.712-30.711Zm-1.358.123H30.725c-.123,0-.41,0-.483-.07a.294.294,0,0,1-.036-.178l-.006-2.79ZM33.975-7.7H13.554v-10.09a.515.515,0,0,0-.513-.518.515.515,0,0,0-.513.518V-7.556a.883.883,0,0,0,.877.887h9.626L16.568-5.55l-5.331.924-2-11.781L7.032-29.394l5.5-.951V-20.2a.515.515,0,0,0,.513.518.515.515,0,0,0,.513-.518V-33.965H29.173l.007,3.129a1.24,1.24,0,0,0,.339.912,1.558,1.558,0,0,0,1.139.371h3.317Z"/></clipPath><clipPath id="b"><path class="a" d="M-71,825H953V-172H-71Z"/></clipPath><clipPath id="c"><path class="a" d="M15.909-27.045a.525.525,0,0,0,.52.53H31.3a.525.525,0,0,0,.52-.53.525.525,0,0,0-.52-.53H16.429A.525.525,0,0,0,15.909-27.045Z"/></clipPath><clipPath id="e"><path class="a" d="M31.3-20.152H16.429a.525.525,0,0,0-.52.53.525.525,0,0,0,.52.53H31.3a.525.525,0,0,0,.52-.53A.525.525,0,0,0,31.3-20.152Z"/></clipPath><clipPath id="g"><path class="a" d="M31.3-16.97H16.429a.525.525,0,0,0-.52.53.525.525,0,0,0,.52.53H31.3a.525.525,0,0,0,.52-.53A.525.525,0,0,0,31.3-16.97Z"/></clipPath><clipPath id="i"><path class="a" d="M31.3-23.333H16.429a.525.525,0,0,0-.52.53.525.525,0,0,0,.52.53H31.3a.525.525,0,0,0,.52-.53A.525.525,0,0,0,31.3-23.333Z"/></clipPath></defs><g transform="translate(0 35)"><g class="b"><g class="c"><path class="a" d="M-5-40H40V5H-5Z"/></g></g><g class="d"><g class="c"><path class="a" d="M10.909-32.576H36.818v11.061H10.909Z"/></g></g><g class="e"><g class="c"><path class="a" d="M10.909-25.152H36.818v11.061H10.909Z"/></g></g><g class="f"><g class="c"><path class="a" d="M10.909-21.97H36.818v11.061H10.909Z"/></g></g><g class="g"><g class="c"><path class="a" d="M10.909-28.333H36.818v11.061H10.909Z"/></g></g></g></svg>